<svg xmlns="http://www.w3.org/2000/svg" viewBox="0 0 64 64" width="64" height="64">
  <defs>
    <linearGradient id="sky" x1="0" y1="0" x2="0" y2="1">
      <stop offset="0" stop-color="#bfe0f2"/>
      <stop offset="1" stop-color="#eaf5fc"/>
    </linearGradient>
    <clipPath id="tile"><rect width="64" height="64" rx="14"/></clipPath>
  </defs>
  <g clip-path="url(#tile)">
    <rect width="64" height="64" fill="url(#sky)"/>

    <!-- Flatiron slabs: strongly right-leaning, overlapping, parallel.
         Big east-facing plane (apex -> base-right) is the lit face;
         thin west edge (base-left -> apex) is shadowed. -->

    <!-- Slab 1 (tallest, back-left) -->
    <polygon points="5,54 18,12 42,54" fill="#bb7a50"/>
    <polygon points="5,54 18,12 14,54" fill="#8f5236"/>
    <line x1="5" y1="54" x2="18" y2="12" stroke="#e2ac7c" stroke-width="1.5" stroke-linecap="round"/>

    <!-- Slab 2 (middle) -->
    <polygon points="21,54 33,18 55,54" fill="#b0703f"/>
    <polygon points="21,54 33,18 30,54" fill="#854c31" />
    <line x1="21" y1="54" x2="33" y2="18" stroke="#d99a6e" stroke-width="1.4" stroke-linecap="round"/>

    <!-- Slab 3 (front-right, shortest) -->
    <polygon points="37,54 48,26 63,54" fill="#a4642f"/>
    <polygon points="37,54 48,26 45,54" fill="#7c4329"/>
    <line x1="37" y1="54" x2="48" y2="26" stroke="#cf8d62" stroke-width="1.3" stroke-linecap="round"/>

    <!-- flat forested base band + a small pine at each edge -->
    <rect x="0" y="52" width="64" height="12" fill="#367640"/>
    <rect x="0" y="57" width="64" height="7" fill="#265831"/>
    <!-- left pine -->
    <polygon points="8,44 4,51 12,51" fill="#22542a"/>
    <polygon points="8,41 4.2,47 11.8,47" fill="#22542a"/>
    <!-- right pine -->
    <polygon points="58,43 54,51 62,51" fill="#22542a"/>
    <polygon points="58,40 54.2,46.5 61.8,46.5" fill="#22542a"/>
  </g>
</svg>
